<?xml version="1.0" encoding="UTF-8"?>
<!DOCTYPE svg PUBLIC "-//W3C//DTD SVG 1.1//EN" "http://www.w3.org/Graphics/SVG/1.1/DTD/svg11.dtd">
<!-- Creator: CorelDRAW 2020 -->
<svg xmlns="http://www.w3.org/2000/svg" xml:space="preserve" width="207.081mm" height="180.772mm" version="1.1" style="shape-rendering:geometricPrecision; text-rendering:geometricPrecision; image-rendering:optimizeQuality; fill-rule:evenodd; clip-rule:evenodd"
viewBox="0 0 5349.68 4670.02"
 xmlns:xlink="http://www.w3.org/1999/xlink"
 xmlns:xodm="http://www.corel.com/coreldraw/odm/2003">
 <defs>
  <style type="text/css">
   <![CDATA[
    .fil0 {fill:#043249}
    .fil1 {fill:#F7931E}
   ]]>
  </style>
 </defs>
 <g id="Capa_x0020_1">
  <metadata id="CorelCorpID_0Corel-Layer"/>
  <g id="_1718726464">
   <path class="fil0" d="M442.15 2988.55c-28.92,43.71 -120.04,119.94 -180.73,198.68 -142.19,184.45 -119.65,405.77 -120.14,631.04 -0.25,113.18 -6.73,689.39 1.34,751.09 16.41,125.35 165.85,98.17 282.48,98.2 399.75,0.12 351.56,31.92 354.32,-400.66 65.71,-9.88 1795.56,-2.95 1949.5,-2.95 100.72,0.01 597.28,-12.04 653.69,4.43 -3.08,437.65 -36.01,398.94 355.93,398.96 341.16,0.03 280.9,-0.58 281.27,-476.4 0.12,-149.61 8.15,-624.85 -9.92,-739.34 -22.6,-143.31 -104.06,-274.3 -199.88,-368.82 -18.41,-18.16 -85.88,-74.45 -87.82,-92.86 108.56,-17.12 285.33,-64.45 362.08,-113.4 120.41,-76.81 95.04,-232.85 -51.6,-272.38 -95.13,-25.64 -190.36,44.48 -438.15,16.51 -138.48,-15.63 -83.49,-20.56 -207.5,-273.86 -62.1,-126.82 -177.95,-437.59 -251.69,-507.25 -1.02,-0.96 -2.42,-2.39 -3.43,-3.35 -31.99,-30.63 -69.9,-53.35 -114.36,-67.97 -102.05,-33.56 -778.16,-15.25 -939.11,-15.25 -157.83,0 -833.48,-18.63 -933.02,14.08 -135.12,44.41 -174.93,142.56 -222.78,251.71l-223.27 494.79c-45.21,94.87 -14.77,92.96 -131.26,106.86 -245.24,29.25 -341.81,-43.66 -442.92,-16.71 -116.39,31.02 -186.66,166.55 -50.68,270.66 57.92,44.35 275.9,106.51 367.66,114.17zm2762.67 332.77c-60.05,1.82 -215.41,11.96 -262.78,32.42 -36,15.55 -50.94,50.68 -51.67,98.31 -0.59,38.97 -6.03,108.3 11.75,138.8 50.04,85.85 400.6,73.95 517.94,73.01 245,-1.96 303.14,23.25 302.5,-136.84 -0.82,-207.05 10.83,-208.27 -227.96,-208.65 -97.52,-0.16 -192.41,-0.01 -289.78,2.95zm352.39 488.55c-182.31,51.74 -100.53,302.55 66.44,258.95 60.9,-15.9 114.31,-80.26 94.29,-163.17 -15,-62.12 -84.17,-117.5 -160.73,-95.77zm-2051.05 15.18c-0.09,250.38 -12.2,204.78 524.84,206.49l502.26 -0.02c66.51,0 113.26,-18.78 121.29,-84.5 29.73,-243.52 -49.69,-232.26 -189.9,-232.25 -72.28,0.01 -144.55,-0.01 -216.83,0l-630.43 -0.23c-74.05,1.53 -111.21,34.25 -111.23,110.51zm-964.76 -15.57c-64.45,17.39 -122.03,80.01 -97.88,165.74 3.38,12 17.57,39.72 22.34,46.17 78.69,106.5 274.39,41.32 237.78,-116.48 -14.53,-62.62 -84.93,-116.28 -162.23,-95.42zm-9.39 -490.18c-115.53,15.89 -92.68,94.66 -93.37,200.84 -0.8,124.29 26.45,146.12 155.84,143.44 193.07,-4.01 376.44,8.23 568.55,-22.65 122.13,-19.63 106.91,-67.14 107.9,-182.08 1.03,-117.78 -61.48,-113.21 -168.54,-126.7 -99.19,-12.5 -482.55,-24.93 -570.39,-12.85zm508.6 -1027.2l-84.43 200.76c-45.07,113.56 18.26,210.08 132.77,212.35 251.04,4.99 507.45,0.26 759.08,0.26l1138.36 0c76.65,0 236.47,10.35 235.43,-141.3 -0.33,-48.52 -194.66,-510.24 -217.96,-538.67 -63.17,-77.09 -201.23,-53.72 -322.38,-53.66l-1138.36 0c-87.43,0.01 -293.54,-15.91 -352.79,23.15 -48.96,32.28 -76.27,116.55 -101.07,183.36 -7.26,19.57 -39.52,94.37 -48.65,113.77z"/>
   <path class="fil1" d="M2298.68 284.35c-122.25,-2.67 -246.81,-0.21 -369.33,-0.34 -100.98,-0.11 -269.5,-30.07 -269.03,91.89 0.48,124.22 168.86,91.81 269.03,91.81 123.17,0 246.42,0.43 369.58,-0.07l0.07 494.27c-119.97,-5.14 -248.82,-1.04 -369.66,-1.04 -100.9,0 -270.43,-31.16 -268.63,92.8 1.78,122.52 167.59,90.86 268.63,90.89 123.13,0.05 246.53,0.88 369.62,-0.07 -0.45,48.55 -5.65,175.16 2.31,215.71 15.13,77.01 96.8,67.41 156.59,67.33 146.22,-0.18 294.58,2.6 440.5,-0.1 188.79,-3.49 335.62,-132.08 354.68,-304.51 6.26,-56.62 -7.27,-168.62 6.75,-215.03 187.35,0 326.83,33.32 332.06,-102.05 189.4,4.32 383.61,0.59 573.54,0.6 179.43,0.01 368.49,-16.54 532.66,40.38 632.48,219.31 616.87,1131.52 -35.09,1320.91 -193.41,56.19 -861.23,17.01 -1117.16,28.64 5.52,22.95 70.71,168.68 84.29,182.91 209.42,9.19 438.8,0.97 650.49,0.98 334.56,0.02 514.45,-4.11 765.32,-215.88 58.5,-49.39 105.1,-99.44 154.04,-170.83 306.3,-446.84 122.5,-1082.07 -368.24,-1294.66 -206.73,-89.56 -344.74,-76.61 -578.23,-76.62 -109.62,-0.01 -592.84,6.06 -657.26,-1.77 -16.9,-50.4 -8.66,-97.42 -114.81,-98.41 -75.19,-0.71 -150.88,0.12 -226.14,0.12 1.36,-154.01 13.35,-294.27 -86.58,-403.03 -4.41,-4.79 -9.04,-8.96 -13.51,-13.62l-76.2 -58.9c-54.65,-31.07 -109.56,-44.88 -180.66,-45.83 -146.24,-1.95 -294.03,0.21 -440.47,0.05 -196.43,-0.21 -156.31,48.88 -159.2,283.48z"/>
  </g>
 </g>
</svg>
