<?xml version="1.0" encoding="UTF-8"?>
<!DOCTYPE svg PUBLIC "-//W3C//DTD SVG 1.1//EN" "http://www.w3.org/Graphics/SVG/1.1/DTD/svg11.dtd">
<!-- Creator: CorelDRAW 2020 -->
<svg xmlns="http://www.w3.org/2000/svg" xml:space="preserve" width="177.537mm" height="167.444mm" version="1.1" style="shape-rendering:geometricPrecision; text-rendering:geometricPrecision; image-rendering:optimizeQuality; fill-rule:evenodd; clip-rule:evenodd"
viewBox="0 0 7256.31 6843.81"
 xmlns:xlink="http://www.w3.org/1999/xlink"
 xmlns:xodm="http://www.corel.com/coreldraw/odm/2003">
 <defs>
  <style type="text/css">
   <![CDATA[
    .fil0 {fill:#043249}
    .fil1 {fill:#F7931E}
   ]]>
  </style>
 </defs>
 <g id="Capa_x0020_1">
  <metadata id="CorelCorpID_0Corel-Layer"/>
  <g id="_1805528856">
   <path class="fil0" d="M5120.93 2624.84c-568.94,-851.56 -1790.01,-1006.66 -2599.74,-374.62 -174.74,136.39 -359.74,346.89 -468.65,601.36 -131.3,306.79 -117.19,573.87 -148.1,928.31 -43.47,498.34 -69.11,998.2 -106.61,1499.71 -6.34,84.72 -12.68,166.85 -18.09,249.48 -4.38,66.97 -21.51,200.33 -14.74,259.82l3767.37 -0.27c3.17,-82.02 -11.37,-204.07 -18.39,-288.52 -39.46,-475.38 -68.97,-983.6 -103.99,-1462.64 -6.98,-95.42 -14.32,-190.62 -20.49,-289.28 -26.31,-419.63 -23.38,-756.32 -268.58,-1123.35zm-2944.8 993.97c124.66,-154.07 196.08,-792.95 803.19,-1262.67 66.23,-51.24 130.19,-96.63 199.83,-145.27 48.81,-34.09 164.95,-108.57 198.14,-143.8 -308.74,85.17 -699.54,350.99 -849.57,527.66 -164.5,193.72 -306.72,425.93 -327.03,709.45 -7.22,100.79 -24.26,217.1 -24.56,314.63z"/>
   <path class="fil1" d="M1672.97 6843.11l3948.27 0.7 1.37 -805.85c-56.68,-12.1 -853.3,-3.63 -983.73,-3.64l-2465.23 0c-155.59,-0.02 -349.73,-10.25 -500.62,1.41l-0.06 807.38z"/>
   <path class="fil1" d="M800.16 3703.43l584.61 0.09c117.96,0 133.59,-148.59 39.56,-185.32 -42.96,-16.77 -937.14,-7.52 -1025.65,-7.52 -58.83,0 -301.15,-6.26 -336.46,6.64 -91.85,33.57 -84.9,182.59 40.14,186.35 228.07,6.87 468.39,-0.24 697.8,-0.24z"/>
   <path class="fil1" d="M6673.15 1786.78c-44.13,12.66 -935.8,534.99 -1022.95,584.62 -47.6,27.11 -139.94,70.82 -158.69,109.38 -38.17,78.48 32.02,160.97 115.04,136.28 30.26,-9 944.1,-542.72 1019.95,-586.04 46.86,-26.77 135.17,-65.13 157.22,-110.29 37.21,-76.19 -33.47,-156.05 -110.57,-133.95z"/>
   <path class="fil1" d="M5844.01 3555.6c-52,14.12 -90.65,65.15 -65.33,130.36 21.25,54.72 76.32,58.59 149.12,58.45 147.01,-0.27 1206.03,7.87 1254.42,-3.52 52.45,-12.34 91.06,-66.49 66.54,-130.4 -22.1,-57.6 -78.27,-60.15 -151.68,-58.5 -138.94,3.11 -282.55,-0.64 -422.62,-0.68 -103.47,-0.02 -789.91,-6.72 -830.44,4.29z"/>
   <path class="fil1" d="M5393.08 485.46c-67.75,16.26 -90.79,89.82 -123.59,146.22l-293.81 509.19c-65.09,113.11 -133.63,228.32 -196.09,339.27 -30.06,53.39 -72.61,117.29 -98.14,169.61 -39.15,80.24 25.32,161.69 107.52,141.91 65.3,-15.72 164.02,-231.61 215.53,-318.82 91.26,-154.5 429.4,-721.86 490.96,-847.3 37.71,-76.85 -23.65,-158.98 -102.38,-140.08z"/>
   <path class="fil1" d="M1841.74 471.09c-128.65,56.49 -1.9,215.87 77.01,348.47l391.62 678.95c31.06,53.46 64.75,112.08 98.22,169.64 28.46,48.91 63.53,134.65 151.86,100.26 29.09,-11.33 55.52,-38.16 59.71,-76.87 6.68,-61.78 -100.93,-217.35 -132.29,-272.08l-391.87 -678.25c-29,-50.2 -65.46,-115.59 -98.06,-169.96 -30.15,-50.28 -66.57,-139.49 -156.2,-100.14z"/>
   <path class="fil1" d="M554.5 1753.04c-76.79,23.44 -98.22,111.45 -36.45,164.25 31.54,26.96 880.8,511.56 1015.54,589.94 42.24,24.57 134.91,92.92 193.66,75.5 71.15,-21.09 94.53,-115.21 31.61,-166.67l-846.77 -491.34c-58.35,-34.08 -112.02,-65.24 -169.93,-97.92 -45.07,-25.44 -131.07,-91.03 -187.67,-73.75z"/>
   <path class="fil1" d="M3552.07 1114.05c0.13,67.8 -12.73,280.64 14.35,325.88 46.28,77.29 175.91,58.37 177.88,-64.97 6.35,-395.72 -2.05,-829.85 -0.09,-1232.7 0.26,-54.42 -2.87,-144.54 -98.47,-142.21 -84.64,2.06 -93.83,67.88 -93.5,149.27 1.3,321.56 -0.8,643.12 -0.17,964.73z"/>
  </g>
 </g>
</svg>
