<?xml version="1.0" encoding="UTF-8"?>
<!DOCTYPE svg PUBLIC "-//W3C//DTD SVG 1.1//EN" "http://www.w3.org/Graphics/SVG/1.1/DTD/svg11.dtd">
<!-- Creator: CorelDRAW 2020 -->
<svg xmlns="http://www.w3.org/2000/svg" xml:space="preserve" width="172.946mm" height="172.466mm" version="1.1" style="shape-rendering:geometricPrecision; text-rendering:geometricPrecision; image-rendering:optimizeQuality; fill-rule:evenodd; clip-rule:evenodd"
viewBox="0 0 8976.52 8951.61"
 xmlns:xlink="http://www.w3.org/1999/xlink"
 xmlns:xodm="http://www.corel.com/coreldraw/odm/2003">
 <defs>
  <style type="text/css">
   <![CDATA[
    .fil2 {fill:#043249}
    .fil0 {fill:#F7931E}
    .fil1 {fill:white}
   ]]>
  </style>
 </defs>
 <g id="Capa_x0020_1">
  <metadata id="CorelCorpID_0Corel-Layer"/>
  <g id="_1727542896">
   <path class="fil0" d="M5661.87 3915.07l758.76 -628.15c209.57,-175.25 488.35,-484.9 549.25,-889.93 303.44,-2018.05 -2850.59,-2064.42 -2619.97,-43.52 61.38,537.74 524.16,933.75 911.75,1246.49 135.4,109.25 255.76,231.05 400.21,315.11z"/>
   <path class="fil0" d="M7237.99 2595.71c-338.8,474.81 355.43,601.27 311.29,1993.49 -75.69,2387.48 -2733.78,3678.21 -4596.69,2572.22 -2314.61,-1374.18 -1971.24,-4735.3 532.26,-5601.43 471.24,-163.04 754.92,-16.31 926.16,-436.33 -862.4,30.97 -1543.4,333.81 -2052.91,742.52 -1769.92,1419.76 -1659,4316.63 457.84,5524.28 636.69,363.24 1456.56,544.94 2307.16,373.7 668.9,-134.66 1394.48,-518.27 1816.96,-1001.22 399.14,-456.26 789,-1125.83 869.15,-1951.03 71.13,-732.28 -173.28,-1814.48 -571.22,-2216.21z"/>
   <path class="fil1" d="M5661.87 3552.7c130.4,-76.71 491.41,-387.59 602.49,-509.95 172.53,-190.05 372.61,-315.76 434.99,-692.47 110.64,-668.02 -419.66,-1234.29 -1037.63,-1232.42 -628.28,1.9 -1142.31,564.47 -1030.45,1229.23 77.28,459.26 650.38,959.75 1030.6,1205.61z"/>
   <path class="fil2" d="M-0 7595.7c163.22,-79.33 253.13,-202.88 399.08,-348.77 135.93,-135.87 240.6,-274.36 401.54,-368.33l1151.5 1212.52 -852.34 837.32c668.41,96.63 618.33,-422.41 1084.36,-664.58 581.68,558.38 514.66,686.22 1027.34,687.69 -84.53,-181.45 -272.86,-325.26 -415.29,-468.19 -152.11,-152.63 -312.5,-286.81 -435.02,-449.8l358.03 -345.89 -172.98 -145.18c-184.56,73.69 -227.45,184.47 -373.2,298.36l-1194.87 -1180.2 355.31 -357.91 -134.83 -234.26c-223.65,175.83 -474.59,460.66 -682.61,668.81 -122.31,122.37 -212.32,217.21 -335.69,334.97 -185.64,177.17 -179.33,184.63 -180.32,523.44z"/>
   <path class="fil2" d="M3184.11 1988.88c92.75,234.5 215.41,219.73 496.05,508.26 173.43,178.3 330.46,343.26 502.97,506.48 -78.98,221.99 -571.47,633.35 -760.42,822.41 -209.9,210.05 -579.99,639.47 -804.09,772.66l-840.58 -797.05 -75.95 344.39c178.89,114.25 624.23,531.02 711.08,730.46l-573.07 553.82 100.25 239.77c225.51,-111.03 2420.47,-2380.61 2476.88,-2469.13 -62.84,-110.01 -141.33,-193.53 -205.17,-337.32 -84.65,-190.66 -54.26,-254.45 -180.46,-403.28 -125.44,-147.94 -456.91,-482.44 -607.41,-567.23l-240.07 95.78z"/>
   <path class="fil2" d="M1733.15 624.87l-1524.94 1509.61c-31.92,52.02 -169.78,-156.29 -207.94,-7.62 0.53,273.42 -9.71,268.12 142.75,417.73 224.73,220.53 699.94,730.36 873.93,841.12l79.9 -273.91 -717.56 -715.75c126.73,-295.12 1295.32,-1234 1533.23,-1602.35 330.24,203.77 391.81,393.64 661.35,589.67l217.92 -113.51c-144.36,-217.82 -770.23,-799.92 -1021.72,-1069.01 -219.45,-234.81 -153,-198.11 -566.24,-199.56 122.51,300.9 333.17,315.7 529.34,623.59z"/>
   <path class="fil2" d="M3118.41 6914.71l257.83 143.93c94.53,-103.68 100.36,-134.04 238.11,-199.94 164.66,249.09 299.8,400.3 752.03,417.2l-586.67 -626.43c140.59,-206.25 2953.9,-2965.92 3255.3,-3281.31l-98.03 -199c-255.43,334.63 -661.01,560.27 -979.73,908.64 -640.02,699.57 -2392.81,2303.02 -2838.84,2836.91z"/>
   <path class="fil2" d="M8748.72 4723.71c-414.02,647.35 -638.73,278.14 -1039.26,1445.82 152.4,-74.44 1091.8,-987.56 1183,-1128.02 250.4,-385.71 -123.41,-651.33 -280.62,-807.56 -200.78,-199.52 -375.19,-389.55 -576.48,-573.44 8.45,382.32 52.79,446.79 247.21,634.4 159.71,154.11 287.25,311.9 466.14,428.79z"/>
   <path class="fil0" d="M5545.79 1697.51c-586.78,145.84 -412.75,1085.9 229.02,946.39 588.09,-127.82 413.05,-1105.98 -229.02,-946.39z"/>
   <path class="fil2" d="M7224.56 6887.79c271.59,231.04 559.01,551.43 825.09,817.43l624.91 627.33c151.09,156.14 124.52,149.16 277.22,213.99 -1.97,-528.42 -39.35,-409.72 -687.03,-1056.41 -201.79,-201.48 -658.56,-705.65 -854.97,-831.1 -141.23,86.03 -130.48,92.31 -185.23,228.77z"/>
   <path class="fil2" d="M7545.75 2529.64l115.44 189.07c229.34,-141.89 540.64,-511.67 742,-714.89 501.62,-506.25 587.82,-455.1 534.44,-895.17 -215.82,161.67 -492.81,475.21 -701.64,683.26 -157.79,157.21 -626.58,559.81 -690.24,737.72z"/>
   <path class="fil2" d="M4035.89 862.39c558.24,-42.12 394.89,-49.17 921.64,-558.62 134.38,-129.96 170.48,-140.6 237.83,-302.49 -549.38,0.71 -396.75,44.86 -946.74,577.5 -179.49,173.84 -147.61,118.4 -212.73,283.61z"/>
   <path class="fil2" d="M4853.7 8134.9c386.64,445.26 361.32,353.58 638.62,605.47 251.65,228.58 104.75,210.33 538.65,211.18 -81.55,-178.37 -93.09,-149.56 -257.62,-312.7 -425.16,-421.56 -525.56,-661.69 -818.43,-556.73 -88.41,31.68 -50.86,14.51 -101.22,52.79z"/>
   <path class="fil2" d="M6479.47 776.74c73.02,54.01 132.07,103.05 211.73,146.13 179.98,-99.55 314.69,-277.1 468.58,-430.87 85.16,-85.11 137.51,-138.83 224.19,-223l156.15 -163.18c53.45,-76.43 6.42,7.12 59.15,-104.53 -477.53,1.01 -431.86,91.59 -679.98,339.74 -155.23,155.24 -292.66,288.37 -439.82,435.72z"/>
   <path class="fil1" d="M5809.42 1992.54c-364.6,-107.54 -443.37,207.6 -263.71,342.39 190.18,142.65 403.29,-33.18 263.71,-342.39z"/>
  </g>
 </g>
</svg>
