<?xml version="1.0" encoding="UTF-8"?>
<!DOCTYPE svg PUBLIC "-//W3C//DTD SVG 1.1//EN" "http://www.w3.org/Graphics/SVG/1.1/DTD/svg11.dtd">
<!-- Creator: CorelDRAW 2020 -->
<svg xmlns="http://www.w3.org/2000/svg" xml:space="preserve" width="154.016mm" height="160.966mm" version="1.1" style="shape-rendering:geometricPrecision; text-rendering:geometricPrecision; image-rendering:optimizeQuality; fill-rule:evenodd; clip-rule:evenodd"
viewBox="0 0 25552.1 26705.06"
 xmlns:xlink="http://www.w3.org/1999/xlink"
 xmlns:xodm="http://www.corel.com/coreldraw/odm/2003">
 <defs>
  <style type="text/css">
   <![CDATA[
    .fil0 {fill:#043249}
    .fil1 {fill:#F7931E}
   ]]>
  </style>
 </defs>
 <g id="Capa_x0020_1">
  <metadata id="CorelCorpID_0Corel-Layer"/>
  <g id="_1718212144">
   <path class="fil0" d="M16395.01 21017.9c88.88,39.95 768.85,531.91 809.29,582.01 -40.85,146.76 -327.66,327.25 -121.09,611.01 64.32,88.36 1378.16,1020.7 1539.44,1137.41 681.39,493.12 1383.42,1001.8 2068.86,1499.07 682.93,495.46 1371.71,998.07 2062.3,1487.97 174.81,124 337.82,272.25 555.4,335.89 264.3,77.33 551.77,12.72 731.71,-100.69 193.18,-121.77 298.75,-300.32 421.13,-471.7l738.33 -1027.24c129.85,-172.69 256.95,-322.9 325.04,-566.02 71.94,-256.8 -12.03,-548.9 -127.25,-718.5 -122.79,-180.8 -305.38,-290.12 -478.02,-414.85l-3612.72 -2612.89c-158.41,-113.53 -347.14,-241.62 -517.49,-373.54 -145.18,-112.45 -1444.74,-1069.03 -1568.72,-1112.54 -354.57,-124.45 -453.92,232.75 -557.08,292.97 -28.07,-7.8 -731.96,-476.68 -820.25,-584.67 201.86,-513.63 257.19,-569.92 409.5,-1148.28 123.96,-470.62 157.46,-849.42 203.78,-1368.29 77.25,-865.01 -146.64,-1978.49 -418.4,-2676.15 -432.3,-1109.87 -1064.02,-2015.8 -1940.28,-2753.08 -136.08,-114.47 -395.85,-328.54 -552.18,-416.01 -89.95,-50.3 -48.18,-31.99 -111.67,-83.3 -26.84,-21.68 -79.75,-47.23 -121.18,-72.4 -691.97,-420.39 -1488.54,-762.73 -2424.82,-916.79 -4526.49,-744.8 -8397.31,3080.7 -7741.81,7593.68 80.36,553.18 278.16,1304.6 536.11,1791.38l124.43 264.32c33.2,61.1 41.44,66.4 68.42,126.2 308.6,684.58 940.85,1383 1479.93,1871.26 538,487.23 1211.81,889.78 1938.5,1186.01 2021.67,824.1 4424.06,537.85 6219.84,-672.66l658.18 -504.78c62.4,-55.74 147.9,-149.02 222.78,-184.82zm936.34 -4809.74c-1.78,-2479.29 -1255.77,-4088.74 -3254,-5109.58 -818.31,-396.25 -1623.8,-513.88 -2589.12,-499.71 -1068.8,15.69 -2212.13,495.69 -3038.24,1098.28 -780.63,569.42 -1433.17,1429.57 -1808.62,2320.5 -469.73,1114.63 -552.41,2231.99 -258.68,3493.73 51.66,221.95 233.25,757.87 328.03,949.46 30.39,61.43 55.56,100.92 88.23,166.75 58.51,117.94 114.54,236.71 181.55,342.69 477.66,755.37 785.35,1094.39 1469.12,1634.13 563.43,444.71 1388.51,815.37 2118.43,980.37 1184.23,267.67 2508.41,93.87 3504.5,-370.2 1887.44,-879.31 3260.37,-2809.18 3258.79,-5006.42z"/>
   <path class="fil0" d="M6.3 6239.23l-0.18 17532.89c2.21,956.29 -13.49,1512.69 611.56,2201.4 369.29,406.92 943.2,724.74 1677.63,724.74l16039.11 0c515.43,0 831.04,-114.16 1190.29,-319.22 217.75,-124.31 669.18,-517.33 765.77,-764.43 -21.32,-43.5 -811.58,-641.34 -915.76,-664.35 -233.05,410.38 -557.81,619.76 -1098.46,619.81l-15980.94 -0.02c-549.53,-0.18 -917.95,-333.55 -1089.78,-745.99 -139.61,-1106.87 -72.48,-10490.31 -72.47,-11253.61 0,-3769.9 0,-5186.03 0,-9484.06 0,-362.04 -44.76,-1793.77 22.21,-2035.33 141.47,-510.24 528.11,-918.63 1140.03,-918.63 3778.26,0.07 7596.21,-18.37 11370.39,1.26 23.66,200.07 6.67,1671.2 6.67,2002.36 0,1333.28 -204.08,2356.25 774.03,3248.13 351.39,320.4 946.8,580.73 1424.94,580.73 1192.93,0 2471.59,-19.68 3630.37,3.1l3.52 11501.55c95.01,57.32 197.36,92.89 302.45,165.44l839.96 584.83 2.02 -12729.3c-0.51,-359.73 -171.86,-495.92 -369.07,-685.11 -165.51,-158.77 -368.76,-359.04 -543.51,-541.73 -615.71,-643.73 -1446.93,-1433.54 -2143.33,-2143.61 -381.8,-389.3 -707.8,-713.58 -1073.04,-1079.58 -342.68,-343.37 -743.19,-737.83 -1076.36,-1076.34 -168.88,-171.56 -348.27,-349.05 -533.15,-533.55 -513.61,-512.6 -439.12,-425.02 -1328.39,-424.8l-10919.01 0.07c-551.85,0 -834.74,-13.14 -1277.7,183.82 -685.34,304.72 -1187.33,896.4 -1330,1640.06 -82.21,428.55 -49.8,967.24 -49.8,1442.03 0,989.16 0,1978.39 0,2967.43z"/>
   <path class="fil1" d="M13194.35 13395.89l0 5566.32c0,371.56 447.5,290.55 776.35,290.55 181.02,0 362.02,-0.05 543.04,0 180.17,0.02 340.4,29.85 451.69,-91.58 134.57,-146.86 75.17,-752.93 75.17,-1013.57l0 -4344.43c0,-917.29 138.5,-784.07 -1438.4,-784.07 -296.42,0 -407.86,41.06 -407.86,376.77z"/>
   <path class="fil1" d="M10655.68 15219.02l0 3607.43c0,537.91 268.25,426.31 851.94,426.31 213.47,0 426.99,-0.41 640.44,0.55 224.44,1.03 353.46,-71.54 353.46,-310.49l0 -3413.5c0,-293.54 94.4,-788.45 -239.04,-826.16 -276.4,-31.27 -765.65,-1.05 -1065.18,-1.19 -188.85,-0.1 -319.14,-32.68 -438.5,78.87 -123.28,115.15 -103.13,223.72 -103.13,438.19z"/>
   <path class="fil0" d="M2871.27 6459.84c547.95,30.66 1315.61,12.49 1887.12,12.19 239.67,-0.12 7058.74,25.73 7201.25,-12.89 15.69,-740.3 83.33,-576.8 -568.39,-576.8l-8029.25 0c-568.34,0 -512.13,-147.19 -490.73,577.5z"/>
   <path class="fil0" d="M2870.19 3954.5l9087.48 5.97 2.44 -577.5c-155.39,-38.08 -7212.88,-10.77 -7958.1,-10.77 -229.23,0 -958.58,-29.73 -1130.21,9.37l-1.61 572.92z"/>
   <path class="fil1" d="M8132.3 17410.62c0.81,355.55 0,711.19 0,1066.74 0,920.21 -152.25,775.41 1531.65,775.41 394.72,0 306.66,-428.52 306.66,-775.41l0.03 -1648.62c1.91,-556.02 -191.57,-433.54 -1255.82,-432.78 -706.39,0.53 -576.4,38.49 -582.53,1014.66z"/>
  </g>
 </g>
</svg>
